<svg width="98" height="80" viewBox="0 0 98 80" fill="none" xmlns="http://www.w3.org/2000/svg">
<path d="M80.3879 0.99324H19.4037C18.7207 1.14813 18.4395 1.3837 18.1159 2.01486V13.7635H17.1143V1.73108C17.569 0.449671 18.0665 0.0277819 19.5468 0H80.9603C81.9966 0.285917 82.4128 0.631347 82.6773 1.78783V4.82431V7.46349V12.7418H81.6471V7.46349V4.82431V2.01486C81.3353 1.36157 81.0588 1.12075 80.3879 0.99324Z" fill="black"/>
<path d="M39.658 34.5668L43.9258 12.6641H49.0243L52.1177 28.5986L55.2111 44.7329H50.5137L46.4177 20.0031L44.0977 34.5668H45.2004H46.3032H48.8238L49.0243 35.7662L49.3393 37.2797L49.6258 38.7361H43.5534L42.6655 44.7329H37.6816L39.658 34.5668Z" fill="#182854"/>
<path d="M59.3516 12.7988H64.1596H72.545V16.9616H64.1596V20.7816V24.773V26.3118H71.4002V30.5317H64.1596V32.7559V36.7473V40.5102H72.6022V44.7301H64.1596H59.3516V12.7988Z" fill="#182854"/>
<path d="M80.1943 12.7988H84.9559V20.7816V24.773V26.3689L90.3199 12.7988H95.7125L89.0864 28.1647L96.3436 44.7301H91.037L84.9559 30.6423V36.7473V44.7301H80.1943V12.7988Z" fill="#182854"/>
<path d="M38.5088 45.8301H43.3036V49.9355V53.8414V61.7957V69.75V73.7271H45.3442H46.3645H46.8747H47.1298H47.2573H47.3849C47.3849 73.7271 48.2696 73.5989 48.869 73.1142C49.4683 72.6295 49.611 71.8597 49.611 71.8597V71.49V71.1203V70.3808V68.9018V65.9439V60.0281V54.1122V53.0645V52.5406V52.2787V52.1477V52.0168C49.611 52.0168 49.4969 51.0474 48.9546 50.5627C48.4123 50.0781 47.2992 49.964 47.2992 49.964L47.235 49.9636L47.1708 49.9631L47.0424 49.9623L46.7855 49.9605L46.2718 49.9569L45.2443 49.9498L43.1894 49.9355V45.8301H47.5847H48.3267H49.0688C54.2631 46.3147 54.52 51.247 54.52 51.247V61.7672V67.0273V69.6573V70.9724V71.6299V71.9586V72.2874C54.52 72.2874 54.4914 74.5112 52.8646 76.1077C51.2378 77.7043 48.9831 77.7613 48.9831 77.7613H48.6282H48.2732H47.5632H46.1434H43.3036H38.5088V45.8301Z" fill="#182854"/>
<path d="M58.1094 73.6362V45.8301H62.9413V73.6362H65.6861H68.4309H69.3458L69.3744 69.7331V45.8301H74.1206V75.659C74.1206 75.659 74.1206 76.7131 73.3486 77.3114C72.5766 77.9097 71.1756 77.7387 71.1756 77.7387H69.8033H68.4309H65.6861H62.9413H61.5689H60.1965C60.1965 77.7387 59.396 77.6839 58.8528 77.2259C58.3095 76.7679 58.1094 75.659 58.1094 75.659V73.6362Z" fill="#182854"/>
<path d="M78.5381 61.3396V45.8301H83.0601L88.1259 63.5062L88.2404 64.8747L88.3835 63.5062L93.4493 45.8301H98V77.7611L93.3635 77.7613V61.3396L93.5638 58.6882L89.4997 74.8531H87.0383L82.8598 58.6882L83.1746 61.3396V77.7613H78.5381V61.3396Z" fill="#182854"/>
<mask id="mask0_2949_6066" style="mask-type:alpha" maskUnits="userSpaceOnUse" x="0" y="12" width="36" height="68">
<path d="M0 12.8164H35.3188V74.9993C35.3188 77.7607 33.0802 79.9993 30.3188 79.9993H5C2.23858 79.9993 0 77.7607 0 74.9993V12.8164Z" fill="url(#paint0_linear_2949_6066)"/>
</mask>
<g mask="url(#mask0_2949_6066)">
<path d="M2.69041 17.7104L0.314835 13.7148C0.187046 13.5958 0.118009 13.5934 0 13.7148V41.9979H3.40594H31.8556H35.3188V13.7148C35.1684 13.5798 35.0808 13.5751 34.9181 13.7148L32.5425 17.7675C32.4197 17.8951 32.3505 17.8816 32.2276 17.7675L29.5659 13.2582C29.4433 13.1244 29.3736 13.1202 29.251 13.2582L26.6465 17.7675C26.5349 17.8977 26.4717 17.8874 26.3603 17.7675L23.6699 13.2582C23.5582 13.122 23.4952 13.1347 23.3836 13.2582L20.7219 17.7675C20.6026 17.8827 20.5394 17.8826 20.4356 17.7675L17.7739 13.2582C17.662 13.1168 17.5994 13.1338 17.4876 13.2582L14.8259 17.7675C14.8259 17.7675 14.7686 17.8531 14.6828 17.8531C14.5969 17.8531 14.5396 17.7675 14.5396 17.7675L11.8779 13.2582C11.7608 13.1267 11.6983 13.1367 11.5917 13.2582C10.7616 14.6947 9.07297 17.6077 8.95849 17.7675C8.844 17.9273 8.70089 17.8341 8.64365 17.7675L6.01049 13.2582C5.88742 13.1417 5.81849 13.1475 5.69565 13.2582C4.91333 14.6471 3.3029 17.4821 3.11973 17.7104C2.93655 17.9387 2.75719 17.8055 2.69041 17.7104Z" fill="url(#paint1_linear_2949_6066)"/>
<path d="M0 20.1211H35.3188V74.9978C35.3188 77.7592 33.0802 79.9978 30.3188 79.9978H5C2.23858 79.9978 0 77.7592 0 74.9978V20.1211Z" fill="url(#paint2_linear_2949_6066)"/>
</g>
<rect x="1.93262" y="25.0508" width="31.4703" height="52.9894" rx="3" fill="white"/>
<rect x="11.457" y="20.9199" width="12.4225" height="1.37635" rx="0.688173" fill="white"/>
<rect x="15.3213" y="72.9453" width="4.69294" height="2.47742" rx="1.23871" fill="#DC50DB"/>
<path d="M28.4324 45.1114C28.4324 51.0225 23.6431 55.8145 17.7352 55.8145C11.8274 55.8145 7.03809 51.0225 7.03809 45.1114C7.03809 39.2002 11.8274 34.4082 17.7352 34.4082C23.6431 34.4082 28.4324 39.2002 28.4324 45.1114Z" fill="#080B1E"/>
<path d="M19.3612 59.1824V55.7289L19.6179 54.2162L27.6622 49.2214C27.0531 50.5632 26.5467 51.3205 25.4372 52.6749L19.3612 59.1824Z" fill="#080B1E"/>
<path d="M11.6777 50.5123L14.1964 48.4003L11.735 47.2302L20.0352 44.3477L17.1158 52.5957L15.9423 50.1698L13.8816 52.7384L11.6777 50.5123Z" fill="white"/>
<rect x="19.1475" y="47.4004" width="0.457942" height="1.82655" rx="0.228971" fill="white"/>
<rect x="23.6123" y="44.7168" width="0.456638" height="1.83177" rx="0.228319" transform="rotate(90 23.6123 44.7168)" fill="white"/>
<rect x="16.9727" y="44.7168" width="0.456638" height="1.83177" rx="0.228319" transform="rotate(90 16.9727 44.7168)" fill="white"/>
<rect x="19.6064" y="42.6055" width="0.457942" height="1.82655" rx="0.228971" transform="rotate(180 19.6064 42.6055)" fill="white"/>
<rect width="0.457268" height="1.82925" rx="0.228634" transform="matrix(0.695682 -0.71835 0.720328 0.693633 20.9541 46.9004)" fill="white"/>
<rect width="0.457313" height="1.82907" rx="0.228657" transform="matrix(0.720328 0.693633 -0.695682 0.71835 22.251 41.8086)" fill="white"/>
<rect width="0.457268" height="1.82925" rx="0.228634" transform="matrix(-0.695682 0.71835 -0.720328 -0.693633 17.8057 43.0762)" fill="white"/>
<defs>
<linearGradient id="paint0_linear_2949_6066" x1="17.6594" y1="12.8164" x2="17.6594" y2="79.9993" gradientUnits="userSpaceOnUse">
<stop stop-color="#4E82E1"/>
<stop offset="1" stop-color="#D752DD"/>
</linearGradient>
<linearGradient id="paint1_linear_2949_6066" x1="17.6594" y1="13.1562" x2="17.6594" y2="41.9979" gradientUnits="userSpaceOnUse">
<stop offset="0.298077" stop-color="#4E82E1"/>
<stop offset="1" stop-color="#D752DD"/>
</linearGradient>
<linearGradient id="paint2_linear_2949_6066" x1="17.6594" y1="20.1211" x2="17.6594" y2="79.9978" gradientUnits="userSpaceOnUse">
<stop stop-color="#4E82E1"/>
<stop offset="1" stop-color="#D752DD"/>
</linearGradient>
</defs>
</svg>
